<svg width="9" height="11" viewBox="0 0 9 11" fill="none" xmlns="http://www.w3.org/2000/svg">
<path fill-rule="evenodd" clip-rule="evenodd" d="M1.29167 0.458252H6.06485L8.625 3.0184V9.62492C8.625 10.1312 8.21459 10.5416 7.70833 10.5416H1.29167C0.785406 10.5416 0.375 10.1312 0.375 9.62492V1.37492C0.375 0.868658 0.785406 0.458252 1.29167 0.458252ZM4.9585 1.375H1.2915V9.625H7.70817V4.12484H5.87516C5.3689 4.12484 4.9585 3.71443 4.9585 3.20817V1.375ZM5.87516 1.56517V3.20817H7.51816L5.87516 1.56517ZM2.6665 7.79167V6.875H5.4165V7.79167H2.6665ZM2.6665 5.0415V5.95817H6.33317V5.0415H2.6665Z" fill="#646464"/>
</svg>
