<svg width="14" height="14" viewBox="0 0 14 14" fill="none" xmlns="http://www.w3.org/2000/svg">
<mask id="path-1-outside-1_980_1461" maskUnits="userSpaceOnUse" x="-0.667969" y="-0.710449" width="15" height="14" fill="black">
<rect fill="white" x="-0.667969" y="-0.710449" width="15" height="14"/>
<path fill-rule="evenodd" clip-rule="evenodd" d="M9.86063 4.97468L7.66537 7.09012V0.289551H6.33203V7.09012L4.13677 4.97468L3.19396 5.88321L6.9987 9.54959L10.8034 5.88321L9.86063 4.97468ZM13.6654 11.8532V9.28349H12.332V11.8532H1.66536V9.28349H0.332031V11.8532C0.332031 12.5628 0.928985 13.138 1.66536 13.138H12.332C13.0684 13.138 13.6654 12.5628 13.6654 11.8532Z"/>
</mask>
<path fill-rule="evenodd" clip-rule="evenodd" d="M9.86063 4.97468L7.66537 7.09012V0.289551H6.33203V7.09012L4.13677 4.97468L3.19396 5.88321L6.9987 9.54959L10.8034 5.88321L9.86063 4.97468ZM13.6654 11.8532V9.28349H12.332V11.8532H1.66536V9.28349H0.332031V11.8532C0.332031 12.5628 0.928985 13.138 1.66536 13.138H12.332C13.0684 13.138 13.6654 12.5628 13.6654 11.8532Z" fill="white"/>
<path d="M7.66537 7.09012H7.56537V7.32535L7.73475 7.16212L7.66537 7.09012ZM9.86063 4.97468L9.93002 4.90267L9.86063 4.83581L9.79124 4.90267L9.86063 4.97468ZM7.66537 0.289551H7.76537V0.189551H7.66537V0.289551ZM6.33203 0.289551V0.189551H6.23203V0.289551H6.33203ZM6.33203 7.09012L6.26264 7.16212L6.43203 7.32535V7.09012H6.33203ZM4.13677 4.97468L4.20616 4.90267L4.13677 4.83581L4.06738 4.90267L4.13677 4.97468ZM3.19396 5.88321L3.12457 5.8112L3.04985 5.88321L3.12457 5.95521L3.19396 5.88321ZM6.9987 9.54959L6.92931 9.6216L6.9987 9.68846L7.06809 9.6216L6.9987 9.54959ZM10.8034 5.88321L10.8728 5.95521L10.9476 5.88321L10.8728 5.8112L10.8034 5.88321ZM13.6654 9.28349H13.7654V9.18349H13.6654V9.28349ZM12.332 9.28349V9.18349H12.232V9.28349H12.332ZM12.332 11.8532V11.9532H12.432V11.8532H12.332ZM1.66536 11.8532H1.56536V11.9532H1.66536V11.8532ZM1.66536 9.28349H1.76536V9.18349H1.66536V9.28349ZM0.332031 9.28349V9.18349H0.232031V9.28349H0.332031ZM7.73475 7.16212L9.93002 5.04669L9.79124 4.90267L7.59598 7.01811L7.73475 7.16212ZM7.56537 0.289551V7.09012H7.76537V0.289551H7.56537ZM6.33203 0.389551H7.66537V0.189551H6.33203V0.389551ZM6.43203 7.09012V0.289551H6.23203V7.09012H6.43203ZM4.06738 5.04669L6.26264 7.16212L6.40142 7.01811L4.20616 4.90267L4.06738 5.04669ZM3.26335 5.95521L4.20616 5.04669L4.06738 4.90267L3.12457 5.8112L3.26335 5.95521ZM7.06809 9.47758L3.26335 5.8112L3.12457 5.95521L6.92931 9.6216L7.06809 9.47758ZM10.734 5.8112L6.92931 9.47758L7.06809 9.6216L10.8728 5.95521L10.734 5.8112ZM9.79124 5.04669L10.734 5.95521L10.8728 5.8112L9.93002 4.90267L9.79124 5.04669ZM13.5654 9.28349V11.8532H13.7654V9.28349H13.5654ZM12.332 9.38349H13.6654V9.18349H12.332V9.38349ZM12.432 11.8532V9.28349H12.232V11.8532H12.432ZM1.66536 11.9532H12.332V11.7532H1.66536V11.9532ZM1.56536 9.28349V11.8532H1.76536V9.28349H1.56536ZM0.332031 9.38349H1.66536V9.18349H0.332031V9.38349ZM0.432031 11.8532V9.28349H0.232031V11.8532H0.432031ZM1.66536 13.038C0.98069 13.038 0.432031 12.5041 0.432031 11.8532H0.232031C0.232031 12.6215 0.87728 13.238 1.66536 13.238V13.038ZM12.332 13.038H1.66536V13.238H12.332V13.038ZM13.5654 11.8532C13.5654 12.5041 13.0167 13.038 12.332 13.038V13.238C13.1201 13.238 13.7654 12.6215 13.7654 11.8532H13.5654Z" fill="white" mask="url(#path-1-outside-1_980_1461)"/>
</svg>
