<svg width="8" height="15" viewBox="0 0 8 15" fill="none" xmlns="http://www.w3.org/2000/svg">
<path d="M0.241935 7.98998H1.88618V14.759C1.88618 14.8927 1.99447 15.001 2.12811 15.001H4.91598C5.04963 15.001 5.15792 14.8927 5.15792 14.759V8.02186H7.04811C7.17102 8.02186 7.27442 7.92964 7.28845 7.80756L7.57553 5.31552C7.58342 5.24696 7.56169 5.1783 7.51582 5.12686C7.4699 5.07538 7.40419 5.04591 7.33524 5.04591H5.15802V3.48378C5.15802 3.01288 5.41156 2.77409 5.91169 2.77409C5.98297 2.77409 7.33524 2.77409 7.33524 2.77409C7.46889 2.77409 7.57718 2.66575 7.57718 2.53215V0.244702C7.57718 0.111057 7.46889 0.00276689 7.33524 0.00276689H5.37339C5.35955 0.00208947 5.32882 0.000976562 5.28353 0.000976562C4.94313 0.000976562 3.75992 0.0677991 2.82527 0.927638C1.78969 1.88048 1.93364 3.02135 1.96805 3.21915V5.04586H0.241935C0.10829 5.04586 0 5.15415 0 5.2878V7.74799C0 7.88164 0.10829 7.98998 0.241935 7.98998Z" fill="white"/>
</svg>
